# xmcd CD database file
#
# Track frame offsets:
#	150
#	11594
#	25036
#	39433
#	53815
#	66655
#	77041
#	89578
#	102923
#	117240
#	130961
#	145590
#	159018
#	173166
#	187046
#	201252
#	213624
#	229217
#	240931
#	254761
#	269202
#
# Disc length: 3756 seconds
#
# Revision: 0
# Processed by: cddbd v1.5.2PL0 Copyright (c) Steve Scherf et al.
# Submitted via: CDex 1.70beta2
#
DISCID=300eaa15
DTITLE=Various Artist - Jazz Roads CD385 - Bebop - Dodo Marmarosa (1943-50)
DYEAR=1900
DGENRE=Jazz
TTITLE0=Charlie Barnet And His Orchestra - The Moose
TTITLE1=Charlie Barnet And His Orchestra - Skyliner
TTITLE2=Dodo Marmarosa Trio - Mellow Mood
TTITLE3=Dodo Marmarosa Trio - Dodo's Blues
TTITLE4=Dodo Marmarosa Trio - How High The Moon
TTITLE5=Dodo Marmarosa Trio - I Surrender Dear
TTITLE6=Dodo Marmarosa Trio - Raindrops
TTITLE7=Dodo Marmarosa Trio - I've Got News For You
TTITLE8=Lucky Thompson And His Lucky Seven - Just One More Chance
TTITLE9=Lucky Thompson And His Lucky Seven - From Dixieland To Bop
TTITLE10=Lucky Thompson And His Lucky Seven - Boulevard Bounce
TTITLE11=Lucky Thompson And His Lucky Seven - Boppin' The Blues
TTITLE12=Dodo Marmarosa Trio - Bopmatism
TTITLE13=Dodo Marmarosa Trio - Dodo's Dance (Marmarosa)
TTITLE14=Dodo Marmarosa Trio - Trade Winds (Marmarosa)
TTITLE15=Dodo Marmarosa Trio - Dary Departs (Marmarosa)
TTITLE16=Dodo Marmarosa Trio - Cosmo Street (Lover) (Marmarosa)
TTITLE17=Dodo Marmarosa Trio - My Foolish Heart
TTITLE18=Dodo Marmarosa Trio - Blue Room
TTITLE19=Dodo Marmarosa Trio - Why Was I Born
TTITLE20=Dodo Marmarosa Trio - The Night Was Young
EXTD=
EXTT0=
EXTT1=
EXTT2=
EXTT3=
EXTT4=
EXTT5=
EXTT6=
EXTT7=
EXTT8=
EXTT9=
EXTT10=
EXTT11=
EXTT12=
EXTT13=
EXTT14=
EXTT15=
EXTT16=
EXTT17=
EXTT18=
EXTT19=
EXTT20=
PLAYORDER=
